<?xml version="1.0" encoding="UTF-8"?>
<svg width="14px" height="14px" viewBox="0 0 14 14" version="1.1" xmlns="http://www.w3.org/2000/svg" xmlns:xlink="http://www.w3.org/1999/xlink">
    <title>shaixuan</title>
    <g id="页面-1" stroke="none" stroke-width="1" fill="none" fill-rule="evenodd">
        <g id="表格&amp;列表" transform="translate(-1354.000000, -1237.000000)">
            <g id="示例：高级查询-收起备份-2" transform="translate(79.000000, 1216.000000)">
                <g id="编组-17" transform="translate(1262.000000, 12.000000)">
                    <g id="编组-28" transform="translate(12.000000, 8.000000)">
                        <rect id="矩形" x="0" y="0" width="16" height="16"></rect>
                        <g id="shaixuan" transform="translate(1.000000, 1.000000)" fill="#000000" fill-opacity="0.7225" fill-rule="nonzero">
                            <path d="M13.8903974,0.937885499 C13.6915468,0.36795174 13.1732829,0 12.5704683,0 L1.40039297,0 C0.797578418,0 0.279314478,0.36795174 0.0804639633,0.937885499 C-0.118386551,1.50781926 0.0585434341,2.11846257 0.531400564,2.49267732 L4.98126799,6.02971128 L4.98126799,11.7431406 C4.98126799,11.9216364 5.07521311,12.0860403 5.23022257,12.1752882 L8.23646657,13.9289305 C8.31475418,13.9743374 8.4024363,13.9978236 8.48855266,13.9978236 C8.57466903,13.9978236 8.66078539,13.9759031 8.73750724,13.9304963 C8.8925167,13.8412484 8.98959333,13.6752787 8.98959333,13.496783 L8.98959333,6.02971128 L13.4410265,2.49267732 C13.9123179,2.11689682 14.0892479,1.50781926 13.8903974,0.937885499 Z M12.8162914,1.70823552 L8.176968,5.39558169 C8.05797084,5.49109256 7.98751199,5.63514175 7.98751199,5.78858546 L7.98751199,12.6246591 L5.98334932,11.4550423 L5.98334932,5.78858546 C5.98334932,5.63514175 5.91289048,5.49109256 5.79389332,5.39558169 L1.15456989,1.70823552 C0.949456371,1.54539731 1.00582345,1.32932352 1.02774397,1.26825919 C1.0496645,1.20562911 1.14047812,1.00208133 1.40195872,1.00208133 L12.5720341,1.00208133 C12.8335147,1.00208133 12.9243283,1.20562911 12.9462488,1.26825919 C12.9681694,1.33088927 13.0214049,1.54539731 12.8162914,1.70823552 Z" id="形状"></path>
                            <path d="M13.4989593,5.98117297 L10.4927153,5.98117297 C10.2155772,5.98117297 9.99167466,6.20507551 9.99167466,6.48221363 C9.99167466,6.75935175 10.2155772,6.9832543 10.4927153,6.9832543 L13.4989593,6.9832543 C13.7760975,6.9832543 14,6.75935175 14,6.48221363 C14,6.20507551 13.7760975,5.98117297 13.4989593,5.98117297 Z M13.4989593,7.98533563 L10.4927153,7.98533563 C10.2155772,7.98533563 9.99167466,8.20923818 9.99167466,8.4863763 C9.99167466,8.76351442 10.2155772,8.98741697 10.4927153,8.98741697 L13.4989593,8.98741697 C13.7760975,8.98741697 14,8.76351442 14,8.4863763 C14,8.20923818 13.7760975,7.98533563 13.4989593,7.98533563 Z M13.4989593,9.9894983 L10.4927153,9.9894983 C10.2155772,9.9894983 9.99167466,10.2134009 9.99167466,10.490539 C9.99167466,10.7676771 10.2155772,10.9915796 10.4927153,10.9915796 L13.4989593,10.9915796 C13.7760975,10.9915796 14,10.7676771 14,10.490539 C14,10.2134009 13.7760975,9.9894983 13.4989593,9.9894983 Z" id="形状"></path>
                        </g>
                    </g>
                </g>
            </g>
        </g>
    </g>
</svg>